inDegrees=no
num_controls=7
num_derivatives=13
num_iterations=110
num_multipliers=7
num_parameters=0
num_slacks=7
num_states=26
objective=0.431228
objective_accelerations=0.050161
objective_balance=0.006766
objective_effort=0.031613
objective_height=0.341528
objective_ligament=0.001161
solver_duration=1433.999077
status=Solve_Succeeded
success=true
DataType=double
version=3
OpenSimVersion=4.5
endheader
time	/jointset/ground_pelvis/pelvis_tilt/value	/jointset/ground_pelvis/pelvis_tx/value	/jointset/ground_pelvis/pelvis_ty/value	/jointset/hip_l/hip_flexion_l/value	/jointset/hip_l/hip_adduction_l/value	/jointset/hip_l/hip_rotation_l/value	/jointset/back/lumbar_extension/value	/jointset/patellofemoral_l/patellar_flexion_l/value	/jointset/knee_l/knee_flexion_l/value	/jointset/knee_l/knee_adduction_l/value	/jointset/knee_l/knee_rotation_l/value	/jointset/ankle_l/ankle_angle_l/value	/jointset/subtalar_l/subtalar_angle_l/value	/jointset/ground_pelvis/pelvis_tilt/speed	/jointset/ground_pelvis/pelvis_tx/speed	/jointset/ground_pelvis/pelvis_ty/speed	/jointset/hip_l/hip_flexion_l/speed	/jointset/hip_l/hip_adduction_l/speed	/jointset/hip_l/hip_rotation_l/speed	/jointset/back/lumbar_extension/speed	/jointset/patellofemoral_l/patellar_flexion_l/speed	/jointset/knee_l/knee_flexion_l/speed	/jointset/knee_l/knee_adduction_l/speed	/jointset/knee_l/knee_rotation_l/speed	/jointset/ankle_l/ankle_angle_l/speed	/jointset/subtalar_l/subtalar_angle_l/speed	/forceset/tau_hip_flexion_l	/forceset/tau_hip_adduction_l	/forceset/tau_hip_rotation_l	/forceset/tau_knee_flexion_l	/forceset/tau_ankle_angle_l	/forceset/tau_subtalar_angle_l	/forceset/tau_lumbar_extension	lambda_cid13_p0	lambda_cid13_p1	lambda_cid13_p2	lambda_cid13_p3	lambda_cid13_p4	lambda_cid13_p5	lambda_cid14_p0	/jointset/ground_pelvis/pelvis_tilt/accel	/jointset/ground_pelvis/pelvis_tx/accel	/jointset/ground_pelvis/pelvis_ty/accel	/jointset/hip_l/hip_flexion_l/accel	/jointset/hip_l/hip_adduction_l/accel	/jointset/hip_l/hip_rotation_l/accel	/jointset/back/lumbar_extension/accel	/jointset/patellofemoral_l/patellar_flexion_l/accel	/jointset/knee_l/knee_flexion_l/accel	/jointset/knee_l/knee_adduction_l/accel	/jointset/knee_l/knee_rotation_l/accel	/jointset/ankle_l/ankle_angle_l/accel	/jointset/subtalar_l/subtalar_angle_l/accel	gamma_cid13_p0	gamma_cid13_p1	gamma_cid13_p2	gamma_cid13_p3	gamma_cid13_p4	gamma_cid13_p5	gamma_cid14_p0
0	-0.1572035674812153	0.05747205060856232	0.8979005085852093	0.3774924667018715	-0.2605457370049513	-0.2487247802442545	-0.01265067647494873	0.03223648243721432	0.03223648243721463	-0.1745328737021488	0.1513934506883038	-0.04231377076293093	-0.01095295587896946	0	0	0	0	0	0	0	0	0	0	0	0	0	0.1580635994243508	-0.08875698262182039	-0.05328857299275932	-0.3474953267157308	0.3955066767568874	-0.05095241910638892	-0.09377131282303695	85.38367025168638	2.860737487578287	4.073508546335255	-38.78330303282084	-591.0587466300267	-72.21920516536903	-38.36963961019092	-2.942937118825792	-1.224693507487335	-0.9608043540358411	10.85022131038765	-1.375101322582578	3.471992324664407	-5.440181484385446	10.78400490756101	10.78400490756136	0.03175583794806822	0.3129082606245981	3.111715438815005	-0.6818786320999242	-7.398513741463077e-08	2.840501445299185e-08	1.631658637427291e-07	4.244508009194977e-08	-5.046436144967966e-08	-1.542065277171782e-07	-2.639000695445337e-08
0.01	-0.1573432761632726	0.0574090347132925	0.8978534728701371	0.3780224328317649	-0.2606139267616203	-0.2485519727573232	-0.0129244516102641	0.03276364505409998	0.03276364505409986	-0.1745328428640224	0.1514057372911196	-0.04216555882976893	-0.01098819005917484	-0.02764690767827655	-0.0128137464655724	-0.009390525306492875	0.1056872560235645	-0.01354799698883326	0.03439090673065918	-0.05447595638516949	0.1049691268592501	0.1049691268592502	4.534654646440453e-05	0.002449994434311958	0.02917485000828418	-0.007067961389726055	0.1418215757310812	-0.09815849952706007	-0.04876789804310683	-0.3183323106981438	0.3462650693545499	-0.02579631065919971	-0.08273361911930802	70.40800703937691	-5.272635728244412	5.176241456058571	-27.05982904645334	-591.1727100285741	-86.90526803237769	-38.38499950243914	-2.631350316912128	-1.341291838795209	-0.9256940556405454	10.38207377877974	-1.331191280108446	3.397028696878519	-5.409442113899403	10.28386237543844	10.2838623754383	-0.003167937422774784	0.209924939093372	2.750232204231033	-0.7224461118878323	-8.504306655267447e-08	8.270648243937849e-08	1.7458802353791e-07	4.855049514301702e-08	-1.392665543366222e-07	-8.660929471401358e-08	-2.874387576516372e-08
0.02	-0.1577506104670294	0.05721156602882638	0.8977130284146629	0.3796000907279817	-0.2608149049667924	-0.2480403784331629	-0.01373461418909466	0.03432659809964333	0.03432659809964337	-0.1745311769604628	0.1514422998191316	-0.04173962591204491	-0.01109474209717326	-0.0535251243398938	-0.02689055783926055	-0.01868174808037501	0.2095383532646855	-0.02655768970065649	0.06775736744579205	-0.1072774887030077	0.207158085731757	0.2071580857317578	0.0003270130761923041	0.004855185038978866	0.05554419691240439	-0.0142635715586078	0.1255795520378079	-0.1075600164322996	-0.04424722309344908	-0.2891692946805617	0.2970234619522106	-0.0006402022120107734	-0.07169592541558052	55.51907827268406	-13.4245795910872	6.285806508891206	-15.56240962404983	-590.0071088022287	-101.4797681145639	-38.43065033772108	-2.589198915493941	-1.477306489110476	-0.9409438475136954	10.48298955389895	-1.267440467180596	3.267103121559147	-5.105296670919186	10.22797131021235	10.22797131021284	0.07901983460071917	0.3039474946955901	2.550614817982212	-0.707408387931086	-9.610099569071816e-08	1.370079504257651e-07	1.860101833330909e-07	5.465591019408429e-08	-2.280687472235646e-07	-1.901206171084894e-08	-3.109774457587408e-08
0.03	-0.1584098391385873	0.05687042657642224	0.8974801325488488	0.3822052030067192	-0.2611431306197098	-0.2472000003125617	-0.01506302503585323	0.03689790700249375	0.03689790700249348	-0.1745255613508494	0.1515027642585885	-0.04105949259919432	-0.01127272942446526	-0.07819046317530798	-0.04120491066069538	-0.02787885667713698	0.3109331850150002	-0.03899381082587374	0.1001721545413263	-0.1580179520223385	0.3066439359064184	0.3066439359064198	0.0008034291088731659	0.007227142556274973	0.08045477601871694	-0.02125347638715644	0.1215913145536732	-0.1011193991880008	-0.04390015586573874	-0.2871252368124952	0.2966869293569591	-0.005254943845534919	-0.0680974101570139	55.24522810102998	-11.52202753629731	6.153341405480157	-16.22882676586041	-590.3518852295241	-96.98369335018637	-38.50513430745066	-2.385688499876895	-1.388625425667748	-0.9063550775057423	9.885078456563301	-1.217685255761712	3.206725797170942	-5.000411868488591	9.739934260367894	9.739934260367614	0.03309185140459801	0.2022124627348412	2.457119857615307	-0.6827608417918785	-1.252956664038836e-07	1.433946124572181e-07	2.297874728855267e-07	8.159645081928539e-08	-3.573641106368511e-07	-2.823859811351314e-08	-3.919395263713171e-08
0.04	-0.1593118186249619	0.05639011844640223	0.8971558134547174	0.3858077332971528	-0.2615929149479932	-0.2460398624622812	-0.01688723865701492	0.04045028288494536	0.04045028288494531	-0.1745149537081494	0.1515866267897168	-0.0401310854151487	-0.01151821166233779	-0.1020752873031917	-0.05472429336243758	-0.03696639374383701	0.4090219556039374	-0.0508694247738679	0.1317093133816757	-0.2064380435836121	0.4033714816520739	0.403371481652071	0.001325419693667369	0.009534803373099775	0.1051989711514107	-0.02776255367470999	0.1176030770695383	-0.09467878194370123	-0.04355308863802499	-0.2850811789444293	0.2963503967617077	-0.009869685479058346	-0.06449889489844773	55.05229823118557	-9.632803147074135	6.022044467287308	-17.10240418115796	-589.5223028470206	-92.37373716838825	-38.60643933104866	-2.433095973987853	-1.318312465171943	-0.9190295415013113	9.821777321623447	-1.155339031735979	3.091577470522197	-4.641222319307723	9.676310424411177	9.676310424410687	0.08813474502338697	0.2910881546013279	2.517338023258461	-0.6112428797320669	-1.548642905515877e-07	1.487933403452704e-07	2.742318785154317e-07	1.089665816625099e-07	-4.874943847826395e-07	-3.904912976165838e-08	-4.740855944582331e-08
0.05	-0.1604488659753792	0.05577789041923503	0.896740876753347	0.3903759982106377	-0.2621584774944865	-0.2445688427979661	-0.01918410387547283	0.04495660873553563	0.04495660873553552	-0.1744987881110498	0.1516934631042997	-0.03895682211112056	-0.01182642448750809	-0.1251783334547633	-0.0676563545380385	-0.04602399633904363	0.504143280119316	-0.06213229107114526	0.1623438358802227	-0.2525913529163588	0.4974272351188039	0.4974272351187968	0.00191842928291176	0.01182029937144046	0.1295324740000717	-0.03380808356421602	0.1109333377581643	-0.09193572973007616	-0.04239030239183362	-0.2783373056678128	0.2865944802963702	-0.007872186725198365	-0.05926137272673566	52.04937350905212	-10.04055420447524	6.162469211722595	-15.5101054240651	-588.7548194116947	-92.11514163242073	-38.73214538730276	-2.225539989165115	-1.270887299308814	-0.8996816402872865	9.284129407417534	-1.095177050331624	3.026732041771388	-4.550838161521211	9.200249353820331	9.200249353820096	0.04654491447903639	0.1954179248117749	2.373163294153484	-0.5904719444286589	-1.712838071355548e-07	1.595149339121227e-07	2.968559504400904e-07	1.256127944152423e-07	-5.680576158909656e-07	-3.357818337734372e-08	-5.114132399638056e-08
0.06	-0.161812269997997	0.0550382949092009	0.8962352528216733	0.3958808402474608	-0.2628333520282739	-0.2427960094282154	-0.02193219277151092	0.05038950042999619	0.0503895004299961	-0.174476360248337	0.1518227818993388	-0.03754286240290908	-0.01219294539174721	-0.1473466217432666	-0.0801977899358223	-0.05510383980453264	0.5963373802715939	-0.07273182223274295	0.1920720544687873	-0.2966827790996286	0.5886846504261902	0.588684650426185	0.002577872816319108	0.01403129946423449	0.1531382519880752	-0.0394241694884735	0.1042635984467879	-0.08919267751645076	-0.04122751614564113	-0.2715934323911979	0.2768385638310324	-0.005874687971338168	-0.05402385055502532	49.11802352229166	-10.46033108598944	6.304235682414934	-14.10830145331065	-586.9414805882712	-91.75683581618802	-38.879712863047	-2.246144401374171	-1.240187309608517	-0.9234777155577896	9.236332449003328	-1.022672004600042	2.910316688525737	-4.228845689412344	9.116642792542432	9.116642792543166	0.101421533855978	0.2761889734919943	2.371793051126952	-0.5253540866823585	-1.871496770852592e-07	1.704606481391349e-07	3.185612714718967e-07	1.418074737746908e-07	-6.465338136082405e-07	-2.742170107587284e-08	-5.468537939922689e-08
